:SAMPLES-PER-SECOND 30
:FULLY-SPECIFIED
:DEGREES
1228
root  65.3404 39.1199 12.5372 175.237 21.749 174.152
RightUpLeg  -2.23276 -19.5626 -19.4501
RightLeg  2.26716 -26.7529 4.36502
RightFoot  10.218 -0.585239 3.44375
RightToes  5.82063e-011 0 -3.6325e-017
Spine  15.1429 -3.8262 2.66957
Spine1  5.63303 -4.31962 2.20906
HEad  34.24 -52.5349 -23.6109
LeftShoulder1  1.31749 -0.184363 -29.6334
LeftArm  -10.4215 -2.28692 -43.8863
LeftForeArm  10.7599 1.92288 -4.50908
LeftHand  0.00691622 5.83825 7.3584
RightShoulder  -0.214823 -4.11794 27.3061
RightArm  13.8482 -12.3934 43.0706
RightForeArm  -17.3839 11.6713 7.18333
RightHand  -1.08977 6.49832 -10.9493
LeftUpLeg  4.67294 36.3712 9.67506
LeftLeg  16.5629 31.3496 4.64597
LeftFoot  -4.66191 -0.019758 0.876285
LeftToes  1.54581e-011 7.46816e-011 -4.69922e-011
1229
root  64.6547 38.9735 12.5032 175.673 15.6313 174.7
RightUpLeg  -0.371074 -21.6226 -22.1833
RightLeg  3.4279 -29.9832 4.76021
RightFoot  10.4108 -0.670885 3.86278
RightToes  5.82063e-011 0 -3.6325e-017
Spine  14.1821 -3.62839 3.12729
Spine1  5.81663 -3.94682 1.57318
HEad  40.0171 -61.6336 -24.0623
LeftShoulder1  1.07749 0.499182 -29.822
LeftArm  -10.1678 -0.817296 -39.4787
LeftForeArm  7.74291 0.568737 -4.84172
LeftHand  -0.0172243 5.50324 6.89062
RightShoulder  -0.199969 -4.06392 27.7984
RightArm  12.1294 -15.842 45.2806
RightForeArm  -14.4108 10.3843 7.09881
RightHand  -1.01881 5.5125 -11.1071
LeftUpLeg  3.33972 25.8176 6.91958
LeftLeg  15.0007 36.78 3.30954
LeftFoot  -4.49215 0.274255 -4.15213
LeftToes  1.54581e-011 7.46816e-011 -4.69922e-011
1230
root  63.9608 38.857 12.4819 175.654 9.3725 174.039
RightUpLeg  1.19384 -25.4537 -25.9793
RightLeg  6.21927 -31.1509 3.30243
RightFoot  10.436 -0.73419 4.18766
RightToes  5.82063e-011 0 -3.6325e-017
Spine  13.6628 -3.12054 1.18451
Spine1  5.9581 -3.75577 2.05162
HEad  43.4202 -63.7101 -25.945
LeftShoulder1  0.627528 1.78192 -30.3061
LeftArm  -10.3552 -1.10068 -35.2277
LeftForeArm  5.68196 -1.57407 -4.97749
LeftHand  0.107667 8.11851 5.94985
RightShoulder  -0.302059 -4.33631 28.9389
RightArm  12.3425 -17.8287 45.4972
RightForeArm  -14.2254 11.5549 6.8549
RightHand  -0.838716 4.42245 -10.186
LeftUpLeg  1.40316 26.8678 4.24999
LeftLeg  15.6895 30.2133 3.4729
LeftFoot  -5.13514 0.154351 -2.26957
LeftToes  1.54581e-011 7.46816e-011 -4.69922e-011
1231
root  63.2743 38.7199 12.434 176.157 2.7774 173.813
RightUpLeg  1.32701 -29.303 -28.0377
RightLeg  10.9121 -29.3747 -1.20428
RightFoot  8.32632 -0.661083 4.15427
RightToes  5.82063e-011 0 -3.6325e-017
Spine  13.1101 -2.68944 -0.164034
Spine1  5.43213 -3.62481 2.91387
HEad  48.9239 -65.9204 -30.9204
LeftShoulder1  0.377242 2.46078 -30.0172
LeftArm  -10.4349 -1.95001 -32.3046
LeftForeArm  3.75948 -3.07795 -5.1545
LeftHand  0.0247983 6.71945 4.94183
RightShoulder  -0.417313 -4.6505 29.3872
RightArm  13.3085 -19.0298 45.5
RightForeArm  -13.9613 13.0034 6.69017
RightHand  -0.74028 3.92794 -9.45932
LeftUpLeg  -1.51885 29.3027 1.10815
LeftLeg  17.4384 21.8397 5.0658
LeftFoot  -6.29326 0.0646826 -0.575762
LeftToes  1.54581e-011 7.46816e-011 -4.69922e-011
1232
root  62.5759 38.61 12.3158 175.883 -2.91974 174.709
RightUpLeg  2.17522 -28.3571 -27.9013
RightLeg  12.5513 -22.673 -3.35204
RightFoot  3.43626 -0.527927 4.2467
RightToes  5.82063e-011 0 -3.6325e-017
Spine  12.6022 -2.53718 0.966754
Spine1  5.77612 -3.15485 1.54303
HEad  52.8134 -64.1145 -34.593
LeftShoulder1  0.155169 3.07151 -30.1942
LeftArm  -10.9135 -3.21291 -29.5784
LeftForeArm  3.20544 -5.78776 -5.25739
LeftHand  0.0148392 6.68964 4.19422
RightShoulder  -0.383056 -4.55966 29.1471
RightArm  14.8862 -18.5803 45.5078
RightForeArm  -12.4986 13.6347 6.79904
RightHand  -0.605927 3.41148 -8.23659
LeftUpLeg  -2.74565 27.8624 0.0293918
LeftLeg  19.3332 18.0795 5.8015
LeftFoot  -7.85348 0.0204694 0.828852
LeftToes  1.54581e-011 7.46816e-011 -4.69922e-011
1233
root  61.8895 38.5758 12.1875 174.607 -7.27728 175.224
RightUpLeg  1.95925 -21.2495 -26.4749
RightLeg  14.6612 -14.2201 -4.13383
RightFoot  -1.38077 -0.265081 2.85938
RightToes  5.82063e-011 0 -3.6325e-017
Spine  13.2432 -1.77643 0.877696
Spine1  6.2448 -2.53785 1.76279
HEad  56.2048 -62.943 -38.2769
LeftShoulder1  -0.0366521 3.60389 -31.1861
LeftArm  -11.4868 -4.69616 -27.4756
LeftForeArm  3.5347 -8.7553 -5.34519
LeftHand  -0.00734188 5.76175 5.31711
RightShoulder  -0.307 -4.37406 28.0478
RightArm  16.3743 -16.1379 45.1618
RightForeArm  -10.1881 12.8734 7.27691
RightHand  -0.60745 3.48421 -8.16416
LeftUpLeg  -1.61736 24.2158 -0.513656
LeftLeg  19.9757 17.8457 5.8846
LeftFoot  -8.98386 0.0250269 1.42298
LeftToes  1.54581e-011 7.46816e-011 -4.69922e-011
1234
root  61.2639 38.5733 12.0056 173.712 -11.2137 175.491
RightUpLeg  0.348553 -11.3896 -24.5399
RightLeg  18.9923 -5.85385 -2.43245
RightFoot  -3.29234 -0.030343 0.229678
RightToes  5.82063e-011 0 -3.6325e-017
Spine  13.5927 -1.5561 1.39994
Spine1  6.44802 -1.92148 -0.0724724
HEad  57.6145 -60.0827 -38.4619
LeftShoulder1  0.0542041 3.34682 -29.1622
LeftArm  -12.4974 -3.36072 -27.8854
LeftForeArm  4.21566 -12.7922 -4.62148
LeftHand  -0.0344137 5.18637 6.62211
RightShoulder  -0.349035 -4.48426 28.3495
RightArm  17.4796 -12.254 43.7344
RightForeArm  -6.49942 11.4571 7.82865
RightHand  -0.719494 3.60087 -9.51437
LeftUpLeg  -0.37983 19.7757 -1.41305
LeftLeg  19.9489 18.4958 5.78114
LeftFoot  -9.75098 0.0254285 2.33776
LeftToes  1.54581e-011 7.46816e-011 -4.69922e-011
1235
root  60.7479 38.4858 11.7182 173.41 -14.7139 175.201
RightUpLeg  -2.02384 -6.52781 -23.1456
RightLeg  24.4465 1.78855 0.649921
RightFoot  -4.95966 -0.176208 2.57643
RightToes  5.82063e-011 0 -3.6325e-017
Spine  12.7429 -1.24712 0.836445
Spine1  7.34206 -1.41067 -2.17888
HEad  57.2172 -55.2773 -36.7441
LeftShoulder1  0.13004 3.11805 -27.773
LeftArm  -12.3936 -2.22738 -27.966
LeftForeArm  3.05512 -16.2664 -4.38649
LeftHand  -0.0335158 5.2055 10.0141
RightShoulder  -0.445346 -4.73405 29.1784
RightArm  15.3053 -7.88792 41.7195
RightForeArm  -1.09805 9.45388 7.62354
RightHand  -0.587033 3.06562 -8.29848
LeftUpLeg  0.412301 15.5542 -2.60956
LeftLeg  20.4435 19.5911 5.4481
LeftFoot  -10.8698 0.0560002 2.294
LeftToes  1.54581e-011 7.46816e-011 -4.69922e-011
1236
root  60.209 38.4764 11.4297 173.082 -18.6292 175.576
RightUpLeg  -4.21334 -5.01888 -20.8748
RightLeg  29.6705 4.02216 2.21031
RightFoot  -6.08489 -0.255422 4.61621
RightToes  5.82063e-011 0 -3.6325e-017
Spine  12.6548 -0.814135 -1.339
Spine1  7.11577 -1.91601 0.318931
HEad  56.7367 -50.834 -36.7478
LeftShoulder1  -0.00392421 3.51583 -29.135
LeftArm  -13.0021 -2.03733 -27.4693
LeftForeArm  2.50575 -17.8133 -4.30428
LeftHand  -0.0734196 4.76276 10.9937
RightShoulder  -0.335175 -4.48496 27.0745
RightArm  12.6011 -5.71938 40.5433
RightForeArm  -2.02624 9.37476 6.79289
RightHand  -0.628953 2.78964 -9.12202
LeftUpLeg  1.49561 13.1254 -2.98585
LeftLeg  20.0479 18.3172 4.50482
LeftFoot  -11.8085 0.0817845 2.64063
LeftToes  1.54581e-011 7.46816e-011 -4.69922e-011
1237
root  59.6666 38.5384 11.1333 172.714 -23.045 176.24
RightUpLeg  -6.55757 -5.93939 -18.291
RightLeg  34.4035 1.92191 1.14284
RightFoot  -6.43565 -0.247712 4.7494
RightToes  5.82063e-011 0 -3.6325e-017
Spine  12.6693 -1.12758 -1.79153
Spine1  6.79616 -2.39433 0.734973
HEad  56.6307 -47.7204 -35.4011
LeftShoulder1  0.0286039 3.42042 -28.703
LeftArm  -14.2251 -1.11771 -28.1276
LeftForeArm  2.94057 -19.1209 -4.1825
LeftHand  -0.117132 4.22551 10.2601
RightShoulder  -0.319349 -4.44909 26.599
RightArm  8.7058 -4.29073 38.934
RightForeArm  -5.04209 10.3482 5.48419
RightHand  -0.712833 3.57639 -9.47652
LeftUpLeg  2.83523 10.875 -3.2651
LeftLeg  18.8677 16.5243 3.66192
LeftFoot  -12.316 0.10305 3.39726
LeftToes  1.54581e-011 7.46816e-011 -4.69922e-011
1238
root  59.1183 38.5938 10.7928 172.37 -27.2875 176.979
RightUpLeg  -9.11767 -7.12821 -15.45
RightLeg  37.7843 -1.38082 -1.39149
RightFoot  -6.47718 -0.211234 3.95352
RightToes  5.82063e-011 0 -3.6325e-017
Spine  12.5883 -1.28976 -2.2389
Spine1  6.76962 -2.79591 1.61811
HEad  55.9563 -42.2321 -28.9775
LeftShoulder1  -0.05099 3.64708 -29.3511
LeftArm  -14.173 -1.53648 -28.5125
LeftForeArm  2.39787 -19.0919 -4.21542
LeftHand  -0.119488 4.20665 10.3752
RightShoulder  -0.322907 -4.47824 25.93
RightArm  6.65949 -3.6836 36.7016
RightForeArm  -10.2751 13.053 4.75453
RightHand  -0.72211 4.16621 -9.01817
LeftUpLeg  4.17701 9.49602 -3.2729
LeftLeg  17.7417 13.9375 2.80661
LeftFoot  -12.9037 0.133038 4.077
LeftToes  1.54581e-011 7.46816e-011 -4.69922e-011
1239
root  58.5488 38.6421 10.4176 172.066 -31.0354 177.688
RightUpLeg  -11.7792 -8.07989 -12.5765
RightLeg  39.0549 -2.66576 -2.571
RightFoot  -6.18933 -0.164649 2.71679
RightToes  5.82063e-011 0 -3.6325e-017
Spine  12.0808 -1.26805 -1.69959
Spine1  7.42229 -2.55552 1.13119
HEad  40.1809 -27.1649 -57.6241
LeftShoulder1  0.0503998 3.36063 -28.8641
LeftArm  -14.0968 -2.2396 -30.4233
LeftForeArm  2.7225 -17.6662 -4.09832
LeftHand  -0.145265 3.88737 10.1999
RightShoulder  -0.467238 -4.90163 26.5801
RightArm  5.56912 -2.7008 33.5504
RightForeArm  -14.7969 15.7474 4.61922
RightHand  -0.804461 4.4626 -9.74469
LeftUpLeg  5.44442 8.53034 -3.23957
LeftLeg  16.9067 11.3988 2.27409
LeftFoot  -13.415 0.16298 4.54773
LeftToes  1.54581e-011 7.46816e-011 -4.69922e-011
1240
root  57.9825 38.6587 10.0026 171.606 -34.3198 177.948
RightUpLeg  -13.6888 -8.30583 -10.1858
RightLeg  37.4665 -2.10735 -2.00034
RightFoot  -6.29264 -0.191593 3.3751
RightToes  5.82063e-011 0 -3.6325e-017
Spine  12.4169 -1.21396 -2.01214
Spine1  7.41162 -2.51411 1.36173
HEad  -10.5468 -8.15355 -176.474
LeftShoulder1  0.00113099 3.49904 -29.4461
LeftArm  -12.7341 -2.49282 -31.4785
LeftForeArm  2.34216 -15.9799 -4.30623
LeftHand  -0.0787438 4.59496 9.74853
RightShoulder  -0.353751 -4.57524 25.9176
RightArm  3.1956 -2.4335 32.0841
RightForeArm  -14.0606 17.5594 4.37161
RightHand  -0.819134 4.90189 -9.50518
LeftUpLeg  7.47984 8.14657 -3.21801
LeftLeg  15.597 8.95676 1.47075
LeftFoot  -13.9238 0.199637 5.13518
LeftToes  1.54581e-011 7.46816e-011 -4.69922e-011
1241
root  57.3871 38.6574 9.57618 171.063 -37.8742 178.26
RightUpLeg  -14.7711 -8.84334 -8.18224
RightLeg  33.1274 -0.320208 -0.488684
RightFoot  -6.25175 -0.216328 3.91289
RightToes  5.82063e-011 0 -3.6325e-017
Spine  12.7228 -1.9557 -1.68465
Spine1  7.57684 -2.98114 0.644698
HEad  -5.33247 -5.4688 -162.827
LeftShoulder1  -0.153146 3.92934 -29.8726
LeftArm  -11.4117 -2.15976 -32.2628
LeftForeArm  1.48103 -14.1089 -4.79399
LeftHand  0.0807375 6.5516 10.4361
RightShoulder  -0.141472 -3.9256 25.3533
RightArm  1.43715 -1.56339 31.819
RightForeArm  -12.1509 18.2086 4.24517
RightHand  -0.932726 5.49243 -10.2332
LeftUpLeg  9.36632 7.82218 -3.15537
LeftLeg  14.7938 5.90028 0.991744
LeftFoot  -14.4974 0.248714 5.85918
LeftToes  1.54581e-011 7.46816e-011 -4.69922e-011
1242
root  56.7615 38.6136 9.09893 170.505 -41.038 178.739
RightUpLeg  -15.158 -8.81059 -6.32846
RightLeg  26.5068 1.30453 0.51169
RightFoot  -5.93945 -0.230641 4.03699
RightToes  5.82063e-011 0 -3.6325e-017
Spine  12.8726 -1.97828 -1.33039
Spine1  7.92278 -2.84454 0.548267
HEad  -3.55044 -0.762004 -159.989
LeftShoulder1  -0.0168241 3.55055 -29.9078
LeftArm  -10.8963 -1.65649 -34.2752
LeftForeArm  3.16583 -11.2995 -5.26099
LeftHand  0.042024 6.15605 10.1936
RightShoulder  -0.1489 -3.95726 24.724
RightArm  0.461633 -0.857544 31.3583
RightForeArm  -10.1378 18.4492 4.12749
RightHand  -0.96323 5.86431 -10.2237
LeftUpLeg  10.9169 7.79728 -2.73555
LeftLeg  14.6811 2.91761 0.60135
LeftFoot  -15.2745 0.315431 6.49708
LeftToes  1.54581e-011 7.46816e-011 -4.69922e-011
